<?xml version="1.0" encoding="UTF-8" standalone="no"?>
<!-- Created with Inkscape (http://www.inkscape.org/) -->

<svg
   xmlns:osb="http://www.openswatchbook.org/uri/2009/osb"
   xmlns:dc="http://purl.org/dc/elements/1.1/"
   xmlns:cc="http://creativecommons.org/ns#"
   xmlns:rdf="http://www.w3.org/1999/02/22-rdf-syntax-ns#"
   xmlns:svg="http://www.w3.org/2000/svg"
   xmlns="http://www.w3.org/2000/svg"
   xmlns:sodipodi="http://sodipodi.sourceforge.net/DTD/sodipodi-0.dtd"
   xmlns:inkscape="http://www.inkscape.org/namespaces/inkscape"
   width="210mm"
   height="297mm"
   viewBox="0 0 210 297"
   version="1.1"
   id="svg8"
   inkscape:version="0.92.4 (5da689c313, 2019-01-14)"
   sodipodi:docname="drawing.svg">
  <defs
     id="defs2">
    <linearGradient
       osb:paint="solid"
       id="linearGradient836">
      <stop
         id="stop834"
         offset="0"
         style="stop-color:#000000;stop-opacity:1;" />
    </linearGradient>
    <linearGradient
       osb:paint="solid"
       id="linearGradient830">
      <stop
         id="stop828"
         offset="0"
         style="stop-color:#700000;stop-opacity:1;" />
    </linearGradient>
  </defs>
  <sodipodi:namedview
     id="base"
     pagecolor="#ffffff"
     bordercolor="#666666"
     borderopacity="1.0"
     inkscape:pageopacity="0.0"
     inkscape:pageshadow="2"
     inkscape:zoom="0.35"
     inkscape:cx="279.09767"
     inkscape:cy="550.78783"
     inkscape:document-units="mm"
     inkscape:current-layer="layer1"
     showgrid="false"
     inkscape:window-width="1366"
     inkscape:window-height="705"
     inkscape:window-x="-8"
     inkscape:window-y="-8"
     inkscape:window-maximized="1" />
  <metadata
     id="metadata5">
    <rdf:RDF>
      <cc:Work
         rdf:about="">
        <dc:format>image/svg+xml</dc:format>
        <dc:type
           rdf:resource="http://purl.org/dc/dcmitype/StillImage" />
        <dc:title></dc:title>
      </cc:Work>
    </rdf:RDF>
  </metadata>
  <g
     inkscape:label="Layer 1"
     inkscape:groupmode="layer"
     id="layer1">
    <g
       id="layer1-9"
       inkscape:label="Layer 1"
       transform="matrix(2.5639662,0,0,2.6925367,-170.18488,-190.28001)"
       style="stroke-width:0.31969979;fill:#091864;fill-opacity:0.99502486"
       inkscape:export-xdpi="96"
       inkscape:export-ydpi="96">
      <path
         inkscape:export-ydpi="96"
         inkscape:export-xdpi="96"
         sodipodi:nodetypes="ccccsccccsscsccccsscccccccccsscccccccccccccs"
         inkscape:connector-curvature="0"
         id="ekLogo "
         d="m 76.644814,140.9398 0.06777,-20.57135 15.176971,-0.1323 15.176975,-0.13229 -3.93218,-3.5953 C 89.753315,104.2739 80.448332,95.784386 78.655169,94.174696 l -2.063176,-1.85209 -0.0058,-4.18923 c -0.0032,-2.304084 0.09833,-4.149558 0.225663,-4.101048 0.219186,0.0835 3.98671,3.553144 14.567865,13.416058 2.556121,2.38261 6.338486,5.871714 8.405255,7.753564 l 3.757764,3.42154 11.19119,-8.25526 c 14.50045,-10.696344 20.24278,-14.923088 22.1847,-16.329412 l 1.57421,-1.14003 v 4.219954 4.219954 l -14.88281,11.165934 c -8.18555,6.14126 -14.88282,11.26063 -14.88282,11.37637 0,0.11574 1.22809,1.593 2.72908,3.2828 l 2.72908,3.07235 h 12.15373 12.15374 v 20.6375 20.6375 H 107.53492 76.577047 Z m 26.393806,-4.31838 c 0,-1.65303 6.35,-1.68591 6.35,0 v 1.91793 15.82805 h 11.37709 11.37708 V 141.00595 127.64449 H 107.53654 82.93029 v 13.36146 13.36145 h 10.054167 10.054163 v -16.17547 z"
         style="fill:#091864;fill-opacity:0.99502486;stroke:none;stroke-width:0.31969979" />
    </g>
  </g>
</svg>
